<mxfile>
    <diagram id="AfOaJva0soYfYB4O5fnT" name="第 1 页">
        <mxGraphModel dx="1163" dy="1450" grid="0" gridSize="10" guides="1" tooltips="1" connect="1" arrows="1" fold="1" page="0" pageScale="1" pageWidth="827" pageHeight="1169" background="#FFFFFF" math="0" shadow="0">
            <root>
                <mxCell id="0"/>
                <mxCell id="1" parent="0"/>
                <mxCell id="2" value="" style="rounded=1;whiteSpace=wrap;html=1;" parent="1" vertex="1">
                    <mxGeometry x="200" y="50" width="120" height="60" as="geometry"/>
                </mxCell>
                <mxCell id="3" value="商品（goods）" style="rounded=0;whiteSpace=wrap;html=1;fillColor=#eeeeee;strokeColor=#36393d;fontColor=#000000;" parent="1" vertex="1">
                    <mxGeometry x="310" y="350" width="120" height="60" as="geometry"/>
                </mxCell>
                <mxCell id="4" value="商品原价（goodsFactory）" style="ellipse;whiteSpace=wrap;html=1;fillColor=#eeeeee;strokeColor=#36393d;fontColor=#000000;" parent="1" vertex="1">
                    <mxGeometry x="120" y="290" width="120" height="80" as="geometry"/>
                </mxCell>
                <mxCell id="5" value="商品名（goodsName）" style="ellipse;whiteSpace=wrap;html=1;fillColor=#eeeeee;strokeColor=#36393d;fontColor=#000000;" parent="1" vertex="1">
                    <mxGeometry x="310" y="190" width="120" height="70" as="geometry"/>
                </mxCell>
                <mxCell id="6" value="商品销售量(Goodspaynum)" style="ellipse;whiteSpace=wrap;html=1;fillColor=#eeeeee;strokeColor=#36393d;fontColor=#000000;" parent="1" vertex="1">
                    <mxGeometry x="560" y="420" width="120" height="80" as="geometry"/>
                </mxCell>
                <mxCell id="10" value="" style="endArrow=none;html=1;exitX=0.5;exitY=0;exitDx=0;exitDy=0;entryX=0.5;entryY=1;entryDx=0;entryDy=0;fillColor=#eeeeee;strokeColor=#36393d;fontColor=#000000;" parent="1" source="3" target="5" edge="1">
                    <mxGeometry width="50" height="50" relative="1" as="geometry">
                        <mxPoint x="320" y="360" as="sourcePoint"/>
                        <mxPoint x="370" y="310" as="targetPoint"/>
                    </mxGeometry>
                </mxCell>
                <mxCell id="11" value="" style="endArrow=none;html=1;entryX=0;entryY=0.5;entryDx=0;entryDy=0;fillColor=#eeeeee;strokeColor=#36393d;fontColor=#000000;" parent="1" target="6" edge="1">
                    <mxGeometry width="50" height="50" relative="1" as="geometry">
                        <mxPoint x="430" y="380" as="sourcePoint"/>
                        <mxPoint x="480" y="330" as="targetPoint"/>
                    </mxGeometry>
                </mxCell>
                <mxCell id="12" value="" style="endArrow=none;html=1;entryX=0;entryY=0.5;entryDx=0;entryDy=0;exitX=1;exitY=1;exitDx=0;exitDy=0;fillColor=#eeeeee;strokeColor=#36393d;fontColor=#000000;" parent="1" source="4" target="3" edge="1">
                    <mxGeometry width="50" height="50" relative="1" as="geometry">
                        <mxPoint x="270" y="380" as="sourcePoint"/>
                        <mxPoint x="320" y="330" as="targetPoint"/>
                    </mxGeometry>
                </mxCell>
                <mxCell id="13" value="商品图片（goodimgList）" style="ellipse;whiteSpace=wrap;html=1;fillColor=#eeeeee;strokeColor=#36393d;fontColor=#000000;" parent="1" vertex="1">
                    <mxGeometry x="190" y="480" width="120" height="80" as="geometry"/>
                </mxCell>
                <mxCell id="14" value="" style="endArrow=none;html=1;entryX=0.5;entryY=1;entryDx=0;entryDy=0;exitX=0.5;exitY=0;exitDx=0;exitDy=0;fillColor=#eeeeee;strokeColor=#36393d;fontColor=#000000;" parent="1" source="13" target="3" edge="1">
                    <mxGeometry width="50" height="50" relative="1" as="geometry">
                        <mxPoint x="364" y="457" as="sourcePoint"/>
                        <mxPoint x="440" y="280" as="targetPoint"/>
                    </mxGeometry>
                </mxCell>
                <mxCell id="24" value="卖家编号(salerid)" style="ellipse;whiteSpace=wrap;html=1;fillColor=#eeeeee;strokeColor=#36393d;fontColor=#000000;" parent="1" vertex="1">
                    <mxGeometry x="310" y="480" width="120" height="80" as="geometry"/>
                </mxCell>
                <mxCell id="25" value="" style="endArrow=none;html=1;fillColor=#eeeeee;strokeColor=#36393d;fontColor=#000000;" parent="1" source="24" edge="1">
                    <mxGeometry width="50" height="50" relative="1" as="geometry">
                        <mxPoint x="400" y="460" as="sourcePoint"/>
                        <mxPoint x="370" y="410" as="targetPoint"/>
                    </mxGeometry>
                </mxCell>
                <mxCell id="26" value="商品编号（gooodsid）" style="ellipse;whiteSpace=wrap;html=1;fillColor=#eeeeee;strokeColor=#36393d;fontColor=#000000;" parent="1" vertex="1">
                    <mxGeometry x="190" y="220" width="120" height="80" as="geometry"/>
                </mxCell>
                <mxCell id="27" value="" style="endArrow=none;html=1;fillColor=#eeeeee;strokeColor=#36393d;fontColor=#000000;" parent="1" source="26" edge="1">
                    <mxGeometry width="50" height="50" relative="1" as="geometry">
                        <mxPoint x="290" y="370" as="sourcePoint"/>
                        <mxPoint x="370" y="350" as="targetPoint"/>
                    </mxGeometry>
                </mxCell>
                <mxCell id="28" value="商品出售价格（goodsSale）" style="ellipse;whiteSpace=wrap;html=1;shadow=0;fillColor=#eeeeee;strokeColor=#36393d;fontColor=#000000;" parent="1" vertex="1">
                    <mxGeometry x="440" y="210" width="120" height="80" as="geometry"/>
                </mxCell>
                <mxCell id="29" value="" style="endArrow=none;html=1;exitX=0.5;exitY=0;exitDx=0;exitDy=0;entryX=0;entryY=1;entryDx=0;entryDy=0;fillColor=#eeeeee;strokeColor=#36393d;fontColor=#000000;" parent="1" source="3" target="28" edge="1">
                    <mxGeometry width="50" height="50" relative="1" as="geometry">
                        <mxPoint x="420" y="370" as="sourcePoint"/>
                        <mxPoint x="470" y="320" as="targetPoint"/>
                    </mxGeometry>
                </mxCell>
                <mxCell id="30" value="商品类型(goodsType)" style="ellipse;whiteSpace=wrap;html=1;fillColor=#eeeeee;strokeColor=#36393d;fontColor=#000000;" parent="1" vertex="1">
                    <mxGeometry x="130" y="400" width="120" height="80" as="geometry"/>
                </mxCell>
                <mxCell id="31" value="商品子类型(goodsTypeTwo)" style="ellipse;whiteSpace=wrap;html=1;fillColor=#eeeeee;strokeColor=#36393d;fontColor=#000000;" parent="1" vertex="1">
                    <mxGeometry x="440" y="470" width="120" height="80" as="geometry"/>
                </mxCell>
                <mxCell id="32" value="" style="endArrow=none;html=1;exitX=1;exitY=0;exitDx=0;exitDy=0;entryX=0;entryY=0.5;entryDx=0;entryDy=0;fillColor=#eeeeee;strokeColor=#36393d;fontColor=#000000;" parent="1" source="30" target="3" edge="1">
                    <mxGeometry width="50" height="50" relative="1" as="geometry">
                        <mxPoint x="240" y="450" as="sourcePoint"/>
                        <mxPoint x="290" y="400" as="targetPoint"/>
                    </mxGeometry>
                </mxCell>
                <mxCell id="33" value="" style="endArrow=none;html=1;exitX=0.45;exitY=0.025;exitDx=0;exitDy=0;exitPerimeter=0;fillColor=#eeeeee;strokeColor=#36393d;fontColor=#000000;" parent="1" source="31" edge="1">
                    <mxGeometry width="50" height="50" relative="1" as="geometry">
                        <mxPoint x="390" y="370" as="sourcePoint"/>
                        <mxPoint x="370" y="410" as="targetPoint"/>
                    </mxGeometry>
                </mxCell>
                <mxCell id="34" value="商品数量（goodsnum）" style="ellipse;whiteSpace=wrap;html=1;fillColor=#eeeeee;strokeColor=#36393d;fontColor=#000000;" parent="1" vertex="1">
                    <mxGeometry x="560" y="340" width="120" height="80" as="geometry"/>
                </mxCell>
                <mxCell id="35" value="商品创建时间（goodsTime）" style="ellipse;whiteSpace=wrap;html=1;fillColor=#eeeeee;strokeColor=#36393d;fontColor=#000000;" parent="1" vertex="1">
                    <mxGeometry x="540" y="260" width="120" height="80" as="geometry"/>
                </mxCell>
                <mxCell id="37" value="" style="endArrow=none;html=1;entryX=0;entryY=0.5;entryDx=0;entryDy=0;exitX=1;exitY=0.5;exitDx=0;exitDy=0;fillColor=#eeeeee;strokeColor=#36393d;fontColor=#000000;" parent="1" source="3" target="34" edge="1">
                    <mxGeometry width="50" height="50" relative="1" as="geometry">
                        <mxPoint x="390" y="360" as="sourcePoint"/>
                        <mxPoint x="440" y="310" as="targetPoint"/>
                    </mxGeometry>
                </mxCell>
                <mxCell id="38" value="" style="endArrow=none;html=1;entryX=0.025;entryY=0.6;entryDx=0;entryDy=0;entryPerimeter=0;exitX=1;exitY=0.5;exitDx=0;exitDy=0;fillColor=#eeeeee;strokeColor=#36393d;fontColor=#000000;" parent="1" source="3" target="35" edge="1">
                    <mxGeometry width="50" height="50" relative="1" as="geometry">
                        <mxPoint x="390" y="360" as="sourcePoint"/>
                        <mxPoint x="440" y="310" as="targetPoint"/>
                    </mxGeometry>
                </mxCell>
                <mxCell id="39" value="订单(0rders)" style="rounded=0;whiteSpace=wrap;html=1;fillColor=#eeeeee;strokeColor=#36393d;fontColor=#000000;" parent="1" vertex="1">
                    <mxGeometry x="370" y="880" width="120" height="60" as="geometry"/>
                </mxCell>
                <mxCell id="40" value="订单内容(content)" style="ellipse;whiteSpace=wrap;html=1;fillColor=#eeeeee;strokeColor=#36393d;fontColor=#000000;" parent="1" vertex="1">
                    <mxGeometry x="210" y="920" width="120" height="80" as="geometry"/>
                </mxCell>
                <mxCell id="41" value="订单填写地址(address)" style="ellipse;whiteSpace=wrap;html=1;fillColor=#eeeeee;strokeColor=#36393d;fontColor=#000000;" parent="1" vertex="1">
                    <mxGeometry x="370" y="970" width="120" height="80" as="geometry"/>
                </mxCell>
                <mxCell id="42" value="接收类型(type)" style="ellipse;whiteSpace=wrap;html=1;fillColor=#eeeeee;strokeColor=#36393d;fontColor=#000000;" parent="1" vertex="1">
                    <mxGeometry x="530" y="920" width="120" height="80" as="geometry"/>
                </mxCell>
                <mxCell id="44" value="订单创建时间(time)" style="ellipse;whiteSpace=wrap;html=1;fillColor=#eeeeee;strokeColor=#36393d;fontColor=#000000;" parent="1" vertex="1">
                    <mxGeometry x="370" y="750" width="120" height="80" as="geometry"/>
                </mxCell>
                <mxCell id="45" value="" style="endArrow=none;html=1;exitX=1;exitY=0.5;exitDx=0;exitDy=0;entryX=0;entryY=0.5;entryDx=0;entryDy=0;fillColor=#eeeeee;strokeColor=#36393d;fontColor=#000000;" parent="1" source="40" target="39" edge="1">
                    <mxGeometry width="50" height="50" relative="1" as="geometry">
                        <mxPoint x="370" y="950" as="sourcePoint"/>
                        <mxPoint x="420" y="900" as="targetPoint"/>
                    </mxGeometry>
                </mxCell>
                <mxCell id="46" value="" style="endArrow=none;html=1;entryX=0.5;entryY=1;entryDx=0;entryDy=0;fillColor=#eeeeee;strokeColor=#36393d;fontColor=#000000;" parent="1" target="39" edge="1">
                    <mxGeometry width="50" height="50" relative="1" as="geometry">
                        <mxPoint x="430" y="970" as="sourcePoint"/>
                        <mxPoint x="430" y="950" as="targetPoint"/>
                    </mxGeometry>
                </mxCell>
                <mxCell id="47" value="" style="endArrow=none;html=1;entryX=0.5;entryY=1;entryDx=0;entryDy=0;fillColor=#eeeeee;strokeColor=#36393d;fontColor=#000000;" parent="1" target="44" edge="1">
                    <mxGeometry width="50" height="50" relative="1" as="geometry">
                        <mxPoint x="430" y="880" as="sourcePoint"/>
                        <mxPoint x="380" y="820" as="targetPoint"/>
                    </mxGeometry>
                </mxCell>
                <mxCell id="48" value="" style="endArrow=none;html=1;exitX=0;exitY=0.5;exitDx=0;exitDy=0;entryX=1;entryY=0.5;entryDx=0;entryDy=0;fillColor=#eeeeee;strokeColor=#36393d;fontColor=#000000;" parent="1" source="42" target="39" edge="1">
                    <mxGeometry width="50" height="50" relative="1" as="geometry">
                        <mxPoint x="370" y="950" as="sourcePoint"/>
                        <mxPoint x="420" y="900" as="targetPoint"/>
                    </mxGeometry>
                </mxCell>
                <mxCell id="49" value="用户编号（useid）" style="ellipse;whiteSpace=wrap;html=1;fillColor=#eeeeee;strokeColor=#36393d;fontColor=#000000;" parent="1" vertex="1">
                    <mxGeometry x="210" y="830" width="120" height="80" as="geometry"/>
                </mxCell>
                <mxCell id="50" value="订单总额（money）" style="ellipse;whiteSpace=wrap;html=1;fillColor=#eeeeee;strokeColor=#36393d;fontColor=#000000;" parent="1" vertex="1">
                    <mxGeometry x="530" y="830" width="120" height="80" as="geometry"/>
                </mxCell>
                <mxCell id="51" value="" style="endArrow=none;html=1;fillColor=#eeeeee;strokeColor=#36393d;fontColor=#000000;" parent="1" source="49" edge="1">
                    <mxGeometry width="50" height="50" relative="1" as="geometry">
                        <mxPoint x="320" y="900" as="sourcePoint"/>
                        <mxPoint x="371" y="910" as="targetPoint"/>
                    </mxGeometry>
                </mxCell>
                <mxCell id="52" value="" style="endArrow=none;html=1;exitX=1;exitY=0.5;exitDx=0;exitDy=0;entryX=0;entryY=0.5;entryDx=0;entryDy=0;fillColor=#eeeeee;strokeColor=#36393d;fontColor=#000000;" parent="1" source="39" target="50" edge="1">
                    <mxGeometry width="50" height="50" relative="1" as="geometry">
                        <mxPoint x="500" y="910" as="sourcePoint"/>
                        <mxPoint x="550" y="860" as="targetPoint"/>
                    </mxGeometry>
                </mxCell>
                <mxCell id="53" value="商家（saler）" style="rounded=0;whiteSpace=wrap;html=1;shadow=0;strokeColor=#36393d;fontColor=#000000;fillColor=none;" parent="1" vertex="1">
                    <mxGeometry x="837" y="850" width="120" height="60" as="geometry"/>
                </mxCell>
                <mxCell id="54" value="商家头像（saleUrl）" style="ellipse;whiteSpace=wrap;html=1;shadow=0;strokeColor=#36393d;fontColor=#000000;fillColor=none;" parent="1" vertex="1">
                    <mxGeometry x="875" y="490" width="120" height="80" as="geometry"/>
                </mxCell>
                <mxCell id="55" value="商家状态（saleusing）" style="ellipse;whiteSpace=wrap;html=1;shadow=0;strokeColor=#36393d;fontColor=#000000;fillColor=none;" parent="1" vertex="1">
                    <mxGeometry x="995" y="658" width="120" height="80" as="geometry"/>
                </mxCell>
                <mxCell id="56" value="商家编号（saleid）" style="ellipse;whiteSpace=wrap;html=1;shadow=0;strokeColor=#36393d;fontColor=#000000;fillColor=none;" parent="1" vertex="1">
                    <mxGeometry x="1059" y="415" width="120" height="80" as="geometry"/>
                </mxCell>
                <mxCell id="57" value="商家注册时间(salerTime)" style="ellipse;whiteSpace=wrap;html=1;shadow=0;strokeColor=#36393d;fontColor=#000000;fillColor=none;" parent="1" vertex="1">
                    <mxGeometry x="1240" y="480" width="120" height="80" as="geometry"/>
                </mxCell>
                <mxCell id="59" value="" style="endArrow=none;html=1;fontColor=#000000;exitX=1;exitY=0.5;exitDx=0;exitDy=0;entryX=0;entryY=0.5;entryDx=0;entryDy=0;strokeColor=#000000;" parent="1" source="54" target="53" edge="1">
                    <mxGeometry width="50" height="50" relative="1" as="geometry">
                        <mxPoint x="991" y="534" as="sourcePoint"/>
                        <mxPoint x="1041" y="484" as="targetPoint"/>
                    </mxGeometry>
                </mxCell>
                <mxCell id="60" value="" style="endArrow=none;html=1;fontColor=#000000;exitX=0.5;exitY=0;exitDx=0;exitDy=0;entryX=0.5;entryY=1;entryDx=0;entryDy=0;strokeColor=#000000;" parent="1" source="55" target="53" edge="1">
                    <mxGeometry width="50" height="50" relative="1" as="geometry">
                        <mxPoint x="981.0000000000086" y="572" as="sourcePoint"/>
                        <mxPoint x="1069" y="574" as="targetPoint"/>
                    </mxGeometry>
                </mxCell>
                <mxCell id="62" value="" style="endArrow=none;html=1;fontColor=#000000;exitX=0.5;exitY=1;exitDx=0;exitDy=0;entryX=0.5;entryY=0;entryDx=0;entryDy=0;strokeColor=#000000;" parent="1" source="56" target="53" edge="1">
                    <mxGeometry width="50" height="50" relative="1" as="geometry">
                        <mxPoint x="1001.0000000000086" y="592" as="sourcePoint"/>
                        <mxPoint x="1089" y="594" as="targetPoint"/>
                    </mxGeometry>
                </mxCell>
                <mxCell id="63" value="" style="endArrow=none;html=1;fontColor=#000000;exitX=0;exitY=0.5;exitDx=0;exitDy=0;entryX=1;entryY=0.5;entryDx=0;entryDy=0;strokeColor=#000000;" parent="1" source="57" target="53" edge="1">
                    <mxGeometry width="50" height="50" relative="1" as="geometry">
                        <mxPoint x="1011.0000000000086" y="602" as="sourcePoint"/>
                        <mxPoint x="1099" y="604" as="targetPoint"/>
                    </mxGeometry>
                </mxCell>
                <mxCell id="64" value="商家地址（saleraddrsss）" style="ellipse;whiteSpace=wrap;html=1;shadow=0;strokeColor=#36393d;fontColor=#000000;fillColor=none;" parent="1" vertex="1">
                    <mxGeometry x="1247" y="568" width="120" height="80" as="geometry"/>
                </mxCell>
                <mxCell id="65" value="商家名（saleName）" style="ellipse;whiteSpace=wrap;html=1;shadow=0;strokeColor=#36393d;fontColor=#000000;fillColor=none;" parent="1" vertex="1">
                    <mxGeometry x="890" y="596" width="120" height="80" as="geometry"/>
                </mxCell>
                <mxCell id="66" value="" style="endArrow=none;html=1;fontColor=#000000;exitX=0;exitY=0.5;exitDx=0;exitDy=0;strokeColor=#000000;" parent="1" source="53" target="65" edge="1">
                    <mxGeometry width="50" height="50" relative="1" as="geometry">
                        <mxPoint x="1056" y="587" as="sourcePoint"/>
                        <mxPoint x="991" y="652" as="targetPoint"/>
                    </mxGeometry>
                </mxCell>
                <mxCell id="67" value="" style="endArrow=none;html=1;fontColor=#000000;exitX=0;exitY=0.5;exitDx=0;exitDy=0;entryX=1;entryY=0.5;entryDx=0;entryDy=0;strokeColor=#000000;" parent="1" source="64" target="53" edge="1">
                    <mxGeometry width="50" height="50" relative="1" as="geometry">
                        <mxPoint x="1264" y="519" as="sourcePoint"/>
                        <mxPoint x="1199" y="584" as="targetPoint"/>
                    </mxGeometry>
                </mxCell>
                <mxCell id="68" value="商家电话号码（salerphone）" style="ellipse;whiteSpace=wrap;html=1;shadow=0;strokeColor=#36393d;fontColor=#000000;fillColor=none;" parent="1" vertex="1">
                    <mxGeometry x="1136" y="658" width="120" height="80" as="geometry"/>
                </mxCell>
                <mxCell id="69" value="" style="endArrow=none;html=1;fontColor=#000000;exitX=0.5;exitY=0;exitDx=0;exitDy=0;strokeColor=#000000;" parent="1" source="68" edge="1">
                    <mxGeometry width="50" height="50" relative="1" as="geometry">
                        <mxPoint x="1065" y="668" as="sourcePoint"/>
                        <mxPoint x="1120" y="595" as="targetPoint"/>
                    </mxGeometry>
                </mxCell>
                <mxCell id="70" value="" style="rounded=0;whiteSpace=wrap;html=1;fillColor=#EEEEEE;strokeColor=#FFFFFF;" parent="1" vertex="1">
                    <mxGeometry x="287" y="1218" width="120" height="60" as="geometry"/>
                </mxCell>
                <mxCell id="71" value="商家（saler）" style="rounded=0;whiteSpace=wrap;html=1;shadow=0;strokeColor=#36393d;fontColor=#000000;fillColor=none;" parent="1" vertex="1">
                    <mxGeometry x="435.5" y="1651" width="120" height="60" as="geometry"/>
                </mxCell>
                <mxCell id="72" value="订单（order）" style="rounded=0;whiteSpace=wrap;html=1;shadow=0;strokeColor=#36393d;fontColor=#000000;fillColor=none;" parent="1" vertex="1">
                    <mxGeometry x="988" y="1483" width="120" height="60" as="geometry"/>
                </mxCell>
                <mxCell id="73" value="收货地址(address)" style="rounded=0;whiteSpace=wrap;html=1;shadow=0;strokeColor=#36393d;fontColor=#000000;fillColor=none;" parent="1" vertex="1">
                    <mxGeometry x="862" y="1631" width="120" height="60" as="geometry"/>
                </mxCell>
                <mxCell id="74" value="用户（user）" style="rounded=0;whiteSpace=wrap;html=1;shadow=0;strokeColor=#36393d;fontColor=#000000;fillColor=none;" parent="1" vertex="1">
                    <mxGeometry x="722" y="1486" width="120" height="60" as="geometry"/>
                </mxCell>
                <mxCell id="75" value="管理员(admin)" style="rounded=0;whiteSpace=wrap;html=1;shadow=0;strokeColor=#36393d;fontColor=#000000;fillColor=none;" parent="1" vertex="1">
                    <mxGeometry x="430" y="1487" width="120" height="60" as="geometry"/>
                </mxCell>
                <mxCell id="76" value="商品（goods）" style="rounded=0;whiteSpace=wrap;html=1;shadow=0;strokeColor=#36393d;fontColor=#000000;fillColor=none;" parent="1" vertex="1">
                    <mxGeometry x="218" y="1566" width="115" height="60" as="geometry"/>
                </mxCell>
                <mxCell id="77" value="" style="rhombus;whiteSpace=wrap;html=1;strokeColor=#36393d;fillColor=#FFFFFF;" parent="1" vertex="1">
                    <mxGeometry x="308" y="1655" width="89" height="52" as="geometry"/>
                </mxCell>
                <mxCell id="79" value="N" style="endArrow=none;html=1;entryX=0;entryY=0.5;entryDx=0;entryDy=0;exitX=1;exitY=0.5;exitDx=0;exitDy=0;" parent="1" source="87" target="72" edge="1">
                    <mxGeometry width="50" height="50" relative="1" as="geometry">
                        <mxPoint x="686" y="1706" as="sourcePoint"/>
                        <mxPoint x="736" y="1656" as="targetPoint"/>
                    </mxGeometry>
                </mxCell>
                <mxCell id="80" value="1" style="endArrow=none;html=1;entryX=1;entryY=0.5;entryDx=0;entryDy=0;exitX=0;exitY=0.5;exitDx=0;exitDy=0;" parent="1" source="87" target="74" edge="1">
                    <mxGeometry width="50" height="50" relative="1" as="geometry">
                        <mxPoint x="686" y="1706" as="sourcePoint"/>
                        <mxPoint x="736" y="1656" as="targetPoint"/>
                    </mxGeometry>
                </mxCell>
                <mxCell id="81" value="1" style="endArrow=none;html=1;exitX=0;exitY=0.5;exitDx=0;exitDy=0;entryX=1;entryY=0.5;entryDx=0;entryDy=0;" parent="1" source="71" target="77" edge="1">
                    <mxGeometry width="50" height="50" relative="1" as="geometry">
                        <mxPoint x="324" y="1773" as="sourcePoint"/>
                        <mxPoint x="374" y="1723" as="targetPoint"/>
                    </mxGeometry>
                </mxCell>
                <mxCell id="82" value="" style="endArrow=none;html=1;exitX=0.5;exitY=1;exitDx=0;exitDy=0;entryX=0;entryY=0.5;entryDx=0;entryDy=0;" parent="1" source="76" target="77" edge="1">
                    <mxGeometry width="50" height="50" relative="1" as="geometry">
                        <mxPoint x="347" y="1661" as="sourcePoint"/>
                        <mxPoint x="426" y="1661" as="targetPoint"/>
                    </mxGeometry>
                </mxCell>
                <mxCell id="83" value="N" style="edgeLabel;html=1;align=center;verticalAlign=middle;resizable=0;points=[];" parent="82" vertex="1" connectable="0">
                    <mxGeometry x="0.4737" y="-1" relative="1" as="geometry">
                        <mxPoint as="offset"/>
                    </mxGeometry>
                </mxCell>
                <mxCell id="84" value="" style="rhombus;whiteSpace=wrap;html=1;strokeColor=#36393d;fillColor=#FFFFFF;" parent="1" vertex="1">
                    <mxGeometry x="591" y="1491" width="89" height="52" as="geometry"/>
                </mxCell>
                <mxCell id="85" value="" style="rhombus;whiteSpace=wrap;html=1;strokeColor=#36393d;fillColor=#FFFFFF;" parent="1" vertex="1">
                    <mxGeometry x="734" y="1577" width="89" height="52" as="geometry"/>
                </mxCell>
                <mxCell id="86" value="" style="rhombus;whiteSpace=wrap;html=1;strokeColor=#36393d;fillColor=#FFFFFF;" parent="1" vertex="1">
                    <mxGeometry x="1003.5" y="1570" width="89" height="52" as="geometry"/>
                </mxCell>
                <mxCell id="87" value="" style="rhombus;whiteSpace=wrap;html=1;strokeColor=#36393d;fillColor=#FFFFFF;" parent="1" vertex="1">
                    <mxGeometry x="862" y="1487" width="89" height="52" as="geometry"/>
                </mxCell>
                <mxCell id="89" value="1" style="endArrow=none;html=1;entryX=1;entryY=0.5;entryDx=0;entryDy=0;exitX=0.5;exitY=1;exitDx=0;exitDy=0;" parent="1" source="86" target="73" edge="1">
                    <mxGeometry width="50" height="50" relative="1" as="geometry">
                        <mxPoint x="666" y="1542" as="sourcePoint"/>
                        <mxPoint x="634.5" y="1542" as="targetPoint"/>
                    </mxGeometry>
                </mxCell>
                <mxCell id="90" value="1" style="endArrow=none;html=1;entryX=0.5;entryY=0;entryDx=0;entryDy=0;exitX=0.5;exitY=1;exitDx=0;exitDy=0;" parent="1" source="72" target="86" edge="1">
                    <mxGeometry width="50" height="50" relative="1" as="geometry">
                        <mxPoint x="676" y="1552" as="sourcePoint"/>
                        <mxPoint x="644.5" y="1552" as="targetPoint"/>
                    </mxGeometry>
                </mxCell>
                <mxCell id="92" value="N" style="endArrow=none;html=1;entryX=0;entryY=0.5;entryDx=0;entryDy=0;exitX=0.5;exitY=1;exitDx=0;exitDy=0;" parent="1" source="85" target="73" edge="1">
                    <mxGeometry width="50" height="50" relative="1" as="geometry">
                        <mxPoint x="755" y="1542" as="sourcePoint"/>
                        <mxPoint x="787" y="1542" as="targetPoint"/>
                    </mxGeometry>
                </mxCell>
                <mxCell id="93" value="1" style="endArrow=none;html=1;entryX=0.5;entryY=0;entryDx=0;entryDy=0;exitX=0.5;exitY=1;exitDx=0;exitDy=0;" parent="1" source="74" target="85" edge="1">
                    <mxGeometry width="50" height="50" relative="1" as="geometry">
                        <mxPoint x="666" y="1542" as="sourcePoint"/>
                        <mxPoint x="634.5" y="1542" as="targetPoint"/>
                    </mxGeometry>
                </mxCell>
                <mxCell id="94" value="1" style="endArrow=none;html=1;entryX=1;entryY=0.5;entryDx=0;entryDy=0;exitX=0;exitY=0.5;exitDx=0;exitDy=0;" parent="1" source="84" target="75" edge="1">
                    <mxGeometry width="50" height="50" relative="1" as="geometry">
                        <mxPoint x="574.5" y="1572" as="sourcePoint"/>
                        <mxPoint x="574.5" y="1605" as="targetPoint"/>
                    </mxGeometry>
                </mxCell>
                <mxCell id="95" value="N" style="endArrow=none;html=1;entryX=0;entryY=0.5;entryDx=0;entryDy=0;exitX=1;exitY=0.5;exitDx=0;exitDy=0;" parent="1" source="84" target="74" edge="1">
                    <mxGeometry width="50" height="50" relative="1" as="geometry">
                        <mxPoint x="574.5" y="1657" as="sourcePoint"/>
                        <mxPoint x="670" y="1681" as="targetPoint"/>
                    </mxGeometry>
                </mxCell>
                <mxCell id="96" value="" style="rhombus;whiteSpace=wrap;html=1;strokeColor=#36393d;fillColor=#FFFFFF;" parent="1" vertex="1">
                    <mxGeometry x="313" y="1495" width="89" height="52" as="geometry"/>
                </mxCell>
                <mxCell id="98" value="" style="rhombus;whiteSpace=wrap;html=1;strokeColor=#36393d;fillColor=#FFFFFF;" parent="1" vertex="1">
                    <mxGeometry x="445.5" y="1579" width="89" height="52" as="geometry"/>
                </mxCell>
                <mxCell id="100" value="1" style="endArrow=none;html=1;exitX=0.5;exitY=0;exitDx=0;exitDy=0;entryX=0.5;entryY=1;entryDx=0;entryDy=0;" parent="1" source="98" target="75" edge="1">
                    <mxGeometry width="50" height="50" relative="1" as="geometry">
                        <mxPoint x="465.5" y="1687" as="sourcePoint"/>
                        <mxPoint x="419" y="1689" as="targetPoint"/>
                    </mxGeometry>
                </mxCell>
                <mxCell id="101" value="" style="endArrow=none;html=1;exitX=0.5;exitY=1;exitDx=0;exitDy=0;entryX=0.5;entryY=0;entryDx=0;entryDy=0;" parent="1" source="98" target="71" edge="1">
                    <mxGeometry width="50" height="50" relative="1" as="geometry">
                        <mxPoint x="280" y="1622" as="sourcePoint"/>
                        <mxPoint x="330" y="1689" as="targetPoint"/>
                    </mxGeometry>
                </mxCell>
                <mxCell id="102" value="N" style="edgeLabel;html=1;align=center;verticalAlign=middle;resizable=0;points=[];" parent="101" vertex="1" connectable="0">
                    <mxGeometry x="0.4737" y="-1" relative="1" as="geometry">
                        <mxPoint as="offset"/>
                    </mxGeometry>
                </mxCell>
                <mxCell id="105" value="1" style="endArrow=none;html=1;exitX=0;exitY=0.5;exitDx=0;exitDy=0;entryX=1;entryY=0.5;entryDx=0;entryDy=0;" parent="1" source="75" target="96" edge="1">
                    <mxGeometry width="50" height="50" relative="1" as="geometry">
                        <mxPoint x="500" y="1589" as="sourcePoint"/>
                        <mxPoint x="500" y="1557" as="targetPoint"/>
                    </mxGeometry>
                </mxCell>
                <mxCell id="108" value="" style="endArrow=none;html=1;exitX=0.5;exitY=0;exitDx=0;exitDy=0;entryX=0;entryY=0.5;entryDx=0;entryDy=0;" parent="1" source="76" target="96" edge="1">
                    <mxGeometry width="50" height="50" relative="1" as="geometry">
                        <mxPoint x="285.5" y="1636" as="sourcePoint"/>
                        <mxPoint x="330" y="1689" as="targetPoint"/>
                    </mxGeometry>
                </mxCell>
                <mxCell id="109" value="N" style="edgeLabel;html=1;align=center;verticalAlign=middle;resizable=0;points=[];" parent="108" vertex="1" connectable="0">
                    <mxGeometry x="0.4737" y="-1" relative="1" as="geometry">
                        <mxPoint as="offset"/>
                    </mxGeometry>
                </mxCell>
                <mxCell id="110" value="管理员" style="rounded=0;whiteSpace=wrap;html=1;strokeColor=#666666;fontColor=#333333;fillColor=#FFFFFF;gradientColor=#FFFFFF;" vertex="1" parent="1">
                    <mxGeometry x="445.5" y="-404" width="120" height="60" as="geometry"/>
                </mxCell>
                <mxCell id="112" value="管理" style="rhombus;whiteSpace=wrap;html=1;strokeColor=#666666;fontColor=#333333;labelBackgroundColor=#ffffff;labelBorderColor=#FFFFFF;fillColor=#FFFFFF;" vertex="1" parent="1">
                    <mxGeometry x="626" y="-400" width="80" height="52" as="geometry"/>
                </mxCell>
                <mxCell id="113" value="N" style="endArrow=none;html=1;exitX=1;exitY=0.5;exitDx=0;exitDy=0;entryX=0;entryY=0.5;entryDx=0;entryDy=0;strokeColor=#000000;labelBackgroundColor=#FFFFFF;fontColor=#000000;" edge="1" parent="1" source="110" target="112">
                    <mxGeometry width="50" height="50" relative="1" as="geometry">
                        <mxPoint x="686" y="-211" as="sourcePoint"/>
                        <mxPoint x="736" y="-261" as="targetPoint"/>
                    </mxGeometry>
                </mxCell>
                <mxCell id="114" value="1" style="endArrow=none;html=1;exitX=1;exitY=0.5;exitDx=0;exitDy=0;strokeColor=#000000;labelBackgroundColor=#FFFFFF;fontColor=#000000;entryX=0;entryY=0.5;entryDx=0;entryDy=0;" edge="1" parent="1" source="112" target="115">
                    <mxGeometry width="50" height="50" relative="1" as="geometry">
                        <mxPoint x="570" y="-366" as="sourcePoint"/>
                        <mxPoint x="784" y="-376" as="targetPoint"/>
                    </mxGeometry>
                </mxCell>
                <mxCell id="115" value="用户" style="rounded=0;whiteSpace=wrap;html=1;strokeColor=#666666;fontColor=#333333;fillColor=#FFFFFF;gradientColor=#FFFFFF;" vertex="1" parent="1">
                    <mxGeometry x="753" y="-404" width="120" height="60" as="geometry"/>
                </mxCell>
                <mxCell id="116" value="商家" style="rounded=0;whiteSpace=wrap;html=1;strokeColor=#666666;fontColor=#333333;fillColor=#FFFFFF;gradientColor=#FFFFFF;" vertex="1" parent="1">
                    <mxGeometry x="446" y="-609" width="120" height="60" as="geometry"/>
                </mxCell>
                <mxCell id="117" value="订单" style="rounded=0;whiteSpace=wrap;html=1;strokeColor=#666666;fontColor=#333333;fillColor=#FFFFFF;gradientColor=#FFFFFF;" vertex="1" parent="1">
                    <mxGeometry x="1040" y="-404" width="120" height="60" as="geometry"/>
                </mxCell>
                <mxCell id="118" value="收获地址" style="rounded=0;whiteSpace=wrap;html=1;strokeColor=#666666;fontColor=#333333;fillColor=#FFFFFF;gradientColor=#FFFFFF;" vertex="1" parent="1">
                    <mxGeometry x="758" y="-226" width="120" height="60" as="geometry"/>
                </mxCell>
                <mxCell id="119" value="商品" style="rounded=0;whiteSpace=wrap;html=1;strokeColor=#666666;fontColor=#333333;fillColor=#FFFFFF;gradientColor=#FFFFFF;" vertex="1" parent="1">
                    <mxGeometry x="602" y="-506" width="120" height="60" as="geometry"/>
                </mxCell>
                <mxCell id="121" value="拥有" style="rhombus;whiteSpace=wrap;html=1;strokeColor=#666666;fontColor=#333333;labelBackgroundColor=#ffffff;labelBorderColor=#FFFFFF;fillColor=#FFFFFF;" vertex="1" parent="1">
                    <mxGeometry x="776" y="-315" width="80" height="52" as="geometry"/>
                </mxCell>
                <mxCell id="122" value="管理" style="rhombus;whiteSpace=wrap;html=1;strokeColor=#666666;fontColor=#333333;labelBackgroundColor=#ffffff;labelBorderColor=#FFFFFF;fillColor=#FFFFFF;" vertex="1" parent="1">
                    <mxGeometry x="466" y="-502" width="80" height="52" as="geometry"/>
                </mxCell>
                <mxCell id="123" value="购买" style="rhombus;whiteSpace=wrap;html=1;strokeColor=#666666;fontColor=#333333;labelBackgroundColor=#ffffff;labelBorderColor=#FFFFFF;fillColor=#FFFFFF;" vertex="1" parent="1">
                    <mxGeometry x="773" y="-500" width="80" height="52" as="geometry"/>
                </mxCell>
                <mxCell id="124" value="拥有" style="rhombus;whiteSpace=wrap;html=1;strokeColor=#666666;fontColor=#333333;labelBackgroundColor=#ffffff;labelBorderColor=#FFFFFF;fillColor=#FFFFFF;" vertex="1" parent="1">
                    <mxGeometry x="919" y="-400" width="80" height="52" as="geometry"/>
                </mxCell>
                <mxCell id="126" value="管理" style="rhombus;whiteSpace=wrap;html=1;strokeColor=#666666;fontColor=#333333;labelBackgroundColor=#ffffff;labelBorderColor=#FFFFFF;fillColor=#FFFFFF;" vertex="1" parent="1">
                    <mxGeometry x="352" y="-502" width="80" height="52" as="geometry"/>
                </mxCell>
                <mxCell id="127" value="1" style="endArrow=none;html=1;exitX=0;exitY=0.5;exitDx=0;exitDy=0;strokeColor=#000000;labelBackgroundColor=#FFFFFF;fontColor=#000000;" edge="1" parent="1" source="124">
                    <mxGeometry width="50" height="50" relative="1" as="geometry">
                        <mxPoint x="716" y="-364" as="sourcePoint"/>
                        <mxPoint x="881" y="-374" as="targetPoint"/>
                    </mxGeometry>
                </mxCell>
                <mxCell id="128" value="1" style="endArrow=none;html=1;exitX=0.5;exitY=0;exitDx=0;exitDy=0;strokeColor=#000000;labelBackgroundColor=#FFFFFF;fontColor=#000000;" edge="1" parent="1" source="121">
                    <mxGeometry width="50" height="50" relative="1" as="geometry">
                        <mxPoint x="726" y="-354" as="sourcePoint"/>
                        <mxPoint x="817" y="-343" as="targetPoint"/>
                    </mxGeometry>
                </mxCell>
                <mxCell id="129" value="1" style="endArrow=none;html=1;exitX=0;exitY=0.5;exitDx=0;exitDy=0;strokeColor=#000000;labelBackgroundColor=#FFFFFF;fontColor=#000000;" edge="1" parent="1" source="110">
                    <mxGeometry width="50" height="50" relative="1" as="geometry">
                        <mxPoint x="736" y="-344" as="sourcePoint"/>
                        <mxPoint x="392" y="-374" as="targetPoint"/>
                    </mxGeometry>
                </mxCell>
                <mxCell id="130" value="N" style="endArrow=none;html=1;entryX=0;entryY=0.5;entryDx=0;entryDy=0;strokeColor=#000000;labelBackgroundColor=#FFFFFF;fontColor=#000000;" edge="1" parent="1" target="117">
                    <mxGeometry width="50" height="50" relative="1" as="geometry">
                        <mxPoint x="1000" y="-374" as="sourcePoint"/>
                        <mxPoint x="636" y="-364" as="targetPoint"/>
                    </mxGeometry>
                </mxCell>
                <mxCell id="131" value="N" style="endArrow=none;html=1;entryX=0;entryY=0.5;entryDx=0;entryDy=0;strokeColor=#000000;labelBackgroundColor=#FFFFFF;fontColor=#000000;exitX=1;exitY=0.5;exitDx=0;exitDy=0;" edge="1" parent="1" source="122" target="119">
                    <mxGeometry width="50" height="50" relative="1" as="geometry">
                        <mxPoint x="548" y="-521" as="sourcePoint"/>
                        <mxPoint x="596" y="-521.5" as="targetPoint"/>
                    </mxGeometry>
                </mxCell>
                <mxCell id="132" value="N" style="endArrow=none;html=1;strokeColor=#000000;labelBackgroundColor=#FFFFFF;fontColor=#000000;entryX=0;entryY=0.5;entryDx=0;entryDy=0;" edge="1" parent="1" target="116">
                    <mxGeometry width="50" height="50" relative="1" as="geometry">
                        <mxPoint x="394" y="-579" as="sourcePoint"/>
                        <mxPoint x="455" y="-579" as="targetPoint"/>
                    </mxGeometry>
                </mxCell>
                <mxCell id="133" value="1" style="endArrow=none;html=1;exitX=1;exitY=0.5;exitDx=0;exitDy=0;strokeColor=#000000;labelBackgroundColor=#FFFFFF;fontColor=#000000;entryX=0;entryY=0.5;entryDx=0;entryDy=0;" edge="1" parent="1" source="116" target="137">
                    <mxGeometry width="50" height="50" relative="1" as="geometry">
                        <mxPoint x="716" y="-364" as="sourcePoint"/>
                        <mxPoint x="330" y="-638" as="targetPoint"/>
                    </mxGeometry>
                </mxCell>
                <mxCell id="134" value="1" style="endArrow=none;html=1;exitX=0.5;exitY=0;exitDx=0;exitDy=0;strokeColor=#000000;labelBackgroundColor=#FFFFFF;fontColor=#000000;entryX=0.5;entryY=1;entryDx=0;entryDy=0;" edge="1" parent="1" source="110" target="122">
                    <mxGeometry width="50" height="50" relative="1" as="geometry">
                        <mxPoint x="726" y="-354" as="sourcePoint"/>
                        <mxPoint x="778" y="-354" as="targetPoint"/>
                    </mxGeometry>
                </mxCell>
                <mxCell id="137" value="发布" style="rhombus;whiteSpace=wrap;html=1;strokeColor=#666666;fontColor=#333333;labelBackgroundColor=#ffffff;labelBorderColor=#FFFFFF;fillColor=#FFFFFF;" vertex="1" parent="1">
                    <mxGeometry x="622" y="-605" width="80" height="52" as="geometry"/>
                </mxCell>
                <mxCell id="138" value="N" style="endArrow=none;html=1;exitX=0.5;exitY=0;exitDx=0;exitDy=0;entryX=0.5;entryY=1;entryDx=0;entryDy=0;strokeColor=#000000;labelBackgroundColor=#FFFFFF;fontColor=#000000;" edge="1" parent="1" source="118" target="121">
                    <mxGeometry width="50" height="50" relative="1" as="geometry">
                        <mxPoint x="580" y="-364" as="sourcePoint"/>
                        <mxPoint x="636" y="-364" as="targetPoint"/>
                    </mxGeometry>
                </mxCell>
                <mxCell id="139" value="1" style="endArrow=none;html=1;exitX=0.5;exitY=1;exitDx=0;exitDy=0;strokeColor=#000000;labelBackgroundColor=#FFFFFF;fontColor=#000000;entryX=0.5;entryY=0;entryDx=0;entryDy=0;" edge="1" parent="1" source="123" target="115">
                    <mxGeometry width="50" height="50" relative="1" as="geometry">
                        <mxPoint x="716" y="-364" as="sourcePoint"/>
                        <mxPoint x="763" y="-364" as="targetPoint"/>
                    </mxGeometry>
                </mxCell>
                <mxCell id="140" value="N" style="endArrow=none;html=1;entryX=0;entryY=0.5;entryDx=0;entryDy=0;strokeColor=#000000;labelBackgroundColor=#FFFFFF;fontColor=#000000;exitX=1;exitY=0.5;exitDx=0;exitDy=0;" edge="1" parent="1" source="119" target="123">
                    <mxGeometry width="50" height="50" relative="1" as="geometry">
                        <mxPoint x="558" y="-511" as="sourcePoint"/>
                        <mxPoint x="612" y="-511" as="targetPoint"/>
                    </mxGeometry>
                </mxCell>
                <mxCell id="141" value="N" style="endArrow=none;html=1;exitX=0.5;exitY=0;exitDx=0;exitDy=0;strokeColor=#000000;labelBackgroundColor=#FFFFFF;fontColor=#000000;entryX=0.5;entryY=1;entryDx=0;entryDy=0;" edge="1" parent="1" source="119" target="137">
                    <mxGeometry width="50" height="50" relative="1" as="geometry">
                        <mxPoint x="342" y="-475" as="sourcePoint"/>
                        <mxPoint x="461.82978723404244" y="-539" as="targetPoint"/>
                    </mxGeometry>
                </mxCell>
                <mxCell id="142" value="" style="endArrow=none;html=1;labelBackgroundColor=#FFFFFF;fontColor=#000000;strokeColor=#000000;entryX=0.5;entryY=1;entryDx=0;entryDy=0;" edge="1" parent="1" target="126">
                    <mxGeometry width="50" height="50" relative="1" as="geometry">
                        <mxPoint x="392" y="-374" as="sourcePoint"/>
                        <mxPoint x="736" y="-461" as="targetPoint"/>
                    </mxGeometry>
                </mxCell>
                <mxCell id="143" value="" style="endArrow=none;html=1;labelBackgroundColor=#FFFFFF;fontColor=#000000;strokeColor=#000000;entryX=0.5;entryY=0;entryDx=0;entryDy=0;" edge="1" parent="1">
                    <mxGeometry width="50" height="50" relative="1" as="geometry">
                        <mxPoint x="392" y="-579" as="sourcePoint"/>
                        <mxPoint x="392" y="-504" as="targetPoint"/>
                    </mxGeometry>
                </mxCell>
            </root>
        </mxGraphModel>
    </diagram>
</mxfile>